<svg width="471" height="566" viewBox="0 0 471 566" fill="none" xmlns="http://www.w3.org/2000/svg">
<path fill-rule="evenodd" clip-rule="evenodd" d="M246.814 93.3594C240.565 87.111 230.435 87.111 224.186 93.3594L52.3594 265.186C46.111 271.435 46.111 281.565 52.3594 287.814L224.186 459.641C230.435 465.889 240.565 465.889 246.814 459.641L418.641 287.814C424.889 281.565 424.889 271.435 418.641 265.186L246.814 93.3594ZM246.814 107.501C240.565 101.253 230.435 101.253 224.186 107.501L84.1791 247.509C77.9308 253.757 77.9308 263.888 84.1792 270.136L224.186 410.143C230.435 416.392 240.565 416.392 246.814 410.143L386.821 270.136C393.069 263.888 393.069 253.757 386.821 247.509L246.814 107.501Z" fill="black"/>
<path d="M256.982 431.501C271.398 436.242 295.767 456.329 277.91 498.752C260.053 541.174 290.28 555.479 307.626 557.329" stroke="black" stroke-width="10"/>
<path d="M393.225 290.25C402.503 293.511 419.65 302.875 414.011 314.249C408.372 325.623 428.355 333.852 439.052 336.545" stroke="black" stroke-width="10"/>
<path d="M367.373 318.387C376.651 321.647 393.798 331.012 388.159 342.386C382.52 353.76 402.503 361.989 413.2 364.682" stroke="black" stroke-width="10"/>
<path d="M344.511 346.286C353.789 349.546 370.936 358.91 365.298 370.285C359.659 381.659 379.642 389.888 390.338 392.581" stroke="black" stroke-width="10"/>
<path d="M317.662 374.502C326.941 377.762 344.087 387.126 338.449 398.501C332.81 409.875 352.793 418.104 363.489 420.797" stroke="black" stroke-width="10"/>
<path d="M287.823 402.955C297.101 406.216 314.248 415.58 308.609 426.954C302.97 438.328 322.953 446.557 333.65 449.25" stroke="black" stroke-width="10"/>
<path d="M35.2397 342.202C44.4705 338.809 61.4821 329.202 55.6818 317.909C49.8816 306.616 69.7452 298.103 80.402 295.258" stroke="black" stroke-width="10"/>
<path d="M169.596 558.844C183.943 553.898 208.023 533.465 189.563 491.302C171.103 449.138 201.124 434.404 218.441 432.307" stroke="black" stroke-width="10"/>
<path d="M147.213 452.712C156.443 449.319 173.455 439.712 167.655 428.419C161.854 417.126 181.718 408.613 192.375 405.768" stroke="black" stroke-width="10"/>
<path d="M123.954 425.04C133.185 421.648 150.197 412.04 144.396 400.748C138.596 389.455 158.46 380.942 169.117 378.097" stroke="black" stroke-width="10"/>
<path d="M96.7089 397.426C105.94 394.034 122.951 384.426 117.151 373.133C111.351 361.84 131.214 353.327 141.871 350.482" stroke="black" stroke-width="10"/>
<path d="M66.4733 369.854C75.7042 366.462 92.7157 356.854 86.9155 345.561C81.1153 334.269 100.979 325.755 111.636 322.91" stroke="black" stroke-width="10"/>
<path d="M466.961 240.996C459.965 247.908 444.033 259.217 436.28 249.164C428.527 239.112 412.374 253.468 405.266 261.903" stroke="black" stroke-width="10"/>
<path d="M339.996 60.9958C328.218 72.5162 302.632 92.6175 294.519 80.8598C286.405 69.1022 259.657 93.4842 247.297 107.145" stroke="black" stroke-width="10"/>
<path d="M343.961 116.996C336.965 123.908 321.033 135.217 313.28 125.164C305.527 115.112 289.374 129.468 282.266 137.903" stroke="black" stroke-width="10"/>
<path d="M370.961 147.996C363.965 154.908 348.033 166.217 340.28 156.164C332.527 146.112 316.374 160.468 309.266 168.903" stroke="black" stroke-width="10"/>
<path d="M405.961 178.996C398.965 185.908 383.033 197.217 375.28 187.164C367.527 177.112 351.374 191.468 344.266 199.903" stroke="black" stroke-width="10"/>
<path d="M435.961 209.996C428.965 216.908 413.033 228.217 405.28 218.164C397.527 208.112 381.374 222.468 374.266 230.903" stroke="black" stroke-width="10"/>
<path d="M3.56038 237.946C10.618 244.795 26.6491 255.962 34.3125 245.841C41.9759 235.72 58.2565 249.932 65.4389 258.303" stroke="black" stroke-width="10"/>
<path d="M160.177 81.7566C167.235 88.6053 183.266 99.7726 190.929 89.6513C198.593 79.5301 214.873 93.742 222.056 102.113" stroke="black" stroke-width="10"/>
<path d="M125.452 112.857C132.51 119.706 148.541 130.873 156.205 120.752C163.868 110.63 180.149 124.842 187.331 133.213" stroke="black" stroke-width="10"/>
<path d="M98.7293 144.096C105.787 150.945 121.818 162.112 129.481 151.991C137.145 141.869 153.425 156.081 160.608 164.452" stroke="black" stroke-width="10"/>
<path d="M64.0064 175.406C71.0641 182.255 87.0952 193.422 94.7586 183.301C102.422 173.179 118.703 187.391 125.885 195.762" stroke="black" stroke-width="10"/>
<path d="M34.2834 206.671C41.341 213.52 57.3721 224.687 65.0355 214.566C72.6989 204.445 88.9795 218.657 96.1619 227.028" stroke="black" stroke-width="10"/>
<circle cx="340" cy="61" r="10" fill="black"/>
<g filter="url(#filter0_d)">
<mask id="path-27-outside-1" maskUnits="userSpaceOnUse" x="335" y="0" width="65" height="64" fill="black">
<rect fill="white" x="335" width="65" height="64"/>
<path fill-rule="evenodd" clip-rule="evenodd" d="M397 48.1169C388.396 21.239 365.339 2 338.247 2C337.83 2 337.415 2.00455 337 2.01361V8.03912C337.664 8.01311 338.331 8 339 8C363.522 8 384.362 25.5905 391.944 50.082L397 48.1169ZM382.075 53.9174C375.443 34.138 358.322 20.0531 338.247 20.0531C337.83 20.0531 337.414 20.0592 337 20.0713V26.0295C337.498 26.0099 337.998 26 338.5 26C356.261 26 371.417 38.3679 377.339 55.7579L382.075 53.9174ZM367.554 59.5607C363.198 46.2344 351.721 36.7175 338.247 36.7175C337.829 36.7175 337.414 36.7267 337 36.7448V41.2546C337.362 41.2388 337.726 41.2308 338.091 41.2308C349.829 41.2308 359.835 49.4849 363.684 61.0647L367.554 59.5607Z"/>
</mask>
<path fill-rule="evenodd" clip-rule="evenodd" d="M397 48.1169C388.396 21.239 365.339 2 338.247 2C337.83 2 337.415 2.00455 337 2.01361V8.03912C337.664 8.01311 338.331 8 339 8C363.522 8 384.362 25.5905 391.944 50.082L397 48.1169ZM382.075 53.9174C375.443 34.138 358.322 20.0531 338.247 20.0531C337.83 20.0531 337.414 20.0592 337 20.0713V26.0295C337.498 26.0099 337.998 26 338.5 26C356.261 26 371.417 38.3679 377.339 55.7579L382.075 53.9174ZM367.554 59.5607C363.198 46.2344 351.721 36.7175 338.247 36.7175C337.829 36.7175 337.414 36.7267 337 36.7448V41.2546C337.362 41.2388 337.726 41.2308 338.091 41.2308C349.829 41.2308 359.835 49.4849 363.684 61.0647L367.554 59.5607Z" fill="black"/>
<path d="M397 48.1169L397.724 49.9811L399.479 49.2994L398.905 47.5072L397 48.1169ZM337 2.01361L336.956 0.0140873L335 0.0568219V2.01361H337ZM337 8.03912H335V10.119L337.078 10.0376L337 8.03912ZM391.944 50.082L390.033 50.6734L390.668 52.7236L392.668 51.9462L391.944 50.082ZM382.075 53.9174L382.799 55.7816L384.577 55.0905L383.971 53.2816L382.075 53.9174ZM337 20.0713L336.942 18.0721L335 18.1287V20.0713H337ZM337 26.0295H335V28.1098L337.079 28.0279L337 26.0295ZM377.339 55.7579L375.446 56.4026L376.118 58.3779L378.063 57.622L377.339 55.7579ZM367.554 59.5607L368.278 61.4249L370.043 60.739L369.455 58.9393L367.554 59.5607ZM337 36.7448L336.912 34.7467L335 34.8305V36.7448H337ZM337 41.2546H335V43.3442L337.088 43.2527L337 41.2546ZM363.684 61.0647L361.786 61.6955L362.449 63.6903L364.408 62.9289L363.684 61.0647ZM398.905 47.5072C390.081 19.942 366.348 0 338.247 0V4C364.33 4 386.711 22.536 395.095 48.7267L398.905 47.5072ZM338.247 0C337.816 0 337.386 0.00470996 336.956 0.0140873L337.044 4.01313C337.444 4.00439 337.845 4 338.247 4V0ZM335 2.01361V8.03912H339V2.01361H335ZM339 6C338.304 6 337.612 6.01362 336.922 6.04065L337.078 10.0376C337.716 10.0126 338.357 10 339 10V6ZM393.854 49.4906C386.058 24.3074 364.542 6 339 6V10C362.501 10 382.666 26.8735 390.033 50.6734L393.854 49.4906ZM392.668 51.9462L397.724 49.9811L396.276 46.2527L391.219 48.2178L392.668 51.9462ZM383.971 53.2816C377.112 32.825 359.319 18.0531 338.247 18.0531V22.0531C357.326 22.0531 373.774 35.4511 380.178 54.5531L383.971 53.2816ZM338.247 18.0531C337.811 18.0531 337.376 18.0595 336.942 18.0721L337.058 22.0704C337.453 22.0589 337.85 22.0531 338.247 22.0531V18.0531ZM335 20.0713V26.0295H339V20.0713H335ZM338.5 24C337.972 24 337.445 24.0104 336.921 24.031L337.079 28.0279C337.55 28.0094 338.024 28 338.5 28V24ZM379.232 55.1131C373.079 37.0445 357.249 24 338.5 24V28C355.274 28 369.755 39.6913 375.446 56.4026L379.232 55.1131ZM378.063 57.622L382.799 55.7816L381.35 52.0532L376.614 53.8937L378.063 57.622ZM338.247 38.7175C350.717 38.7175 361.52 47.5386 365.653 60.182L369.455 58.9393C364.876 44.9302 352.724 34.7175 338.247 34.7175V38.7175ZM337.088 38.7429C337.472 38.726 337.859 38.7175 338.247 38.7175V34.7175C337.8 34.7175 337.355 34.7273 336.912 34.7467L337.088 38.7429ZM335 36.7448V41.2546H339V36.7448H335ZM337.088 43.2527C337.42 43.2381 337.755 43.2308 338.091 43.2308V39.2308C337.697 39.2308 337.304 39.2394 336.912 39.2566L337.088 43.2527ZM338.091 43.2308C348.83 43.2308 358.163 50.7949 361.786 61.6955L365.582 60.4338C361.507 48.1748 350.828 39.2308 338.091 39.2308V43.2308ZM364.408 62.9289L368.278 61.4249L366.829 57.6965L362.96 59.2005L364.408 62.9289Z" fill="black" mask="url(#path-27-outside-1)"/>
</g>
<mask id="path-29-outside-2" maskUnits="userSpaceOnUse" x="257" y="207" width="54" height="54" fill="black">
<rect fill="white" x="257" y="207" width="54" height="54"/>
<path fill-rule="evenodd" clip-rule="evenodd" d="M284 259C297.807 259 309 247.807 309 234C309 220.193 297.807 209 284 209C270.193 209 259 220.193 259 234C259 247.807 270.193 259 284 259ZM284 254C295.046 254 304 245.046 304 234C304 222.954 295.046 214 284 214C272.954 214 264 222.954 264 234C264 245.046 272.954 254 284 254Z"/>
</mask>
<path fill-rule="evenodd" clip-rule="evenodd" d="M284 259C297.807 259 309 247.807 309 234C309 220.193 297.807 209 284 209C270.193 209 259 220.193 259 234C259 247.807 270.193 259 284 259ZM284 254C295.046 254 304 245.046 304 234C304 222.954 295.046 214 284 214C272.954 214 264 222.954 264 234C264 245.046 272.954 254 284 254Z" fill="black"/>
<path d="M307 234C307 246.703 296.703 257 284 257V261C298.912 261 311 248.912 311 234H307ZM284 211C296.703 211 307 221.297 307 234H311C311 219.088 298.912 207 284 207V211ZM261 234C261 221.297 271.297 211 284 211V207C269.088 207 257 219.088 257 234H261ZM284 257C271.297 257 261 246.703 261 234H257C257 248.912 269.088 261 284 261V257ZM302 234C302 243.941 293.941 252 284 252V256C296.15 256 306 246.15 306 234H302ZM284 216C293.941 216 302 224.059 302 234H306C306 221.85 296.15 212 284 212V216ZM266 234C266 224.059 274.059 216 284 216V212C271.85 212 262 221.85 262 234H266ZM284 252C274.059 252 266 243.941 266 234H262C262 246.15 271.85 256 284 256V252Z" fill="black" mask="url(#path-29-outside-2)"/>
<path d="M170 247.411C178.667 229.745 201.6 205.011 224 247.411" stroke="black" stroke-width="8"/>
<defs>
<filter id="filter0_d" x="331" y="0" width="72.4785" height="71.6903" filterUnits="userSpaceOnUse" color-interpolation-filters="sRGB">
<feFlood flood-opacity="0" result="BackgroundImageFix"/>
<feColorMatrix in="SourceAlpha" type="matrix" values="0 0 0 0 0 0 0 0 0 0 0 0 0 0 0 0 0 0 127 0" result="hardAlpha"/>
<feOffset dy="4"/>
<feGaussianBlur stdDeviation="2"/>
<feComposite in2="hardAlpha" operator="out"/>
<feColorMatrix type="matrix" values="0 0 0 0 0 0 0 0 0 0 0 0 0 0 0 0 0 0 0.25 0"/>
<feBlend mode="normal" in2="BackgroundImageFix" result="effect1_dropShadow"/>
<feBlend mode="normal" in="SourceGraphic" in2="effect1_dropShadow" result="shape"/>
</filter>
</defs>
</svg>
